# Blender v2.80 (sub 75) OBJ File: ''
# www.blender.org
mtllib tablex.mtl
o Side_Table__Side_Table
v 0.552526 2.436723 1.105048
v 0.552526 2.169954 1.105048
v 1.105048 2.169954 1.105048
v 1.105048 2.436723 1.105048
v 1.105048 2.436723 0.552526
v 1.105048 2.169954 0.552526
v 1.105048 2.169954 0.000000
v 1.105048 2.436723 0.000000
v 0.552526 2.169954 0.552526
v 0.552526 2.169954 0.000000
v 0.552526 2.436723 0.552526
v 0.552526 2.436723 0.000000
v 0.000000 2.436723 0.552526
v 0.000000 2.436723 0.000000
v 0.000000 2.169954 0.552526
v 0.000000 2.169954 0.000000
v 0.000000 2.436723 1.105048
v 0.000000 2.169954 1.105048
v 0.602591 0.724895 0.602591
v 0.742949 0.724891 0.602591
v 0.692809 0.002364 0.602591
v 0.602591 0.002364 0.602591
v 0.602591 2.169954 1.054979
v 1.054979 2.169954 1.054979
v 0.602591 2.169954 0.602591
v 1.054979 2.169954 0.602591
v 0.602591 0.002364 0.692809
v 0.692809 0.002364 0.692809
v 0.602591 0.724895 0.742950
v 0.742949 0.724891 0.742950
v 0.914812 1.808686 0.914812
v 0.602591 1.808690 0.914812
v 0.602591 1.447423 0.823280
v 0.823280 1.447423 0.823280
v 0.914812 1.808686 0.602591
v 0.823280 1.447423 0.602591
v 0.602591 1.808690 0.602591
v 0.602591 1.447423 0.602591
v -0.552526 2.436723 1.105048
v -1.105048 2.436723 1.105048
v -1.105048 2.169954 1.105048
v -0.552526 2.169954 1.105048
v -1.105048 2.436723 0.552526
v -1.105048 2.436723 0.000000
v -1.105048 2.169954 0.000000
v -1.105048 2.169954 0.552526
v -0.552526 2.169954 0.552526
v -0.552526 2.169954 0.000000
v -0.552526 2.436723 0.552526
v -0.552526 2.436723 0.000000
v -0.602591 0.724895 0.602591
v -0.602591 0.002364 0.602591
v -0.692809 0.002364 0.602591
v -0.742949 0.724891 0.602591
v -0.602591 2.169954 1.054979
v -1.054979 2.169954 1.054979
v -0.602591 2.169954 0.602591
v -1.054979 2.169954 0.602591
v -0.602591 0.002364 0.692809
v -0.692809 0.002364 0.692809
v -0.602591 0.724895 0.742950
v -0.742949 0.724891 0.742950
v -0.914812 1.808686 0.914812
v -0.823280 1.447423 0.823280
v -0.602591 1.447423 0.823280
v -0.602591 1.808690 0.914812
v -0.914812 1.808686 0.602591
v -0.823280 1.447423 0.602591
v -0.602591 1.447423 0.602591
v -0.602591 1.808690 0.602591
v 0.552526 2.436723 -1.105047
v 1.105048 2.436723 -1.105047
v 1.105048 2.169954 -1.105047
v 0.552526 2.169954 -1.105047
v 1.105048 2.436723 -0.552525
v 1.105048 2.169954 -0.552526
v 0.552526 2.169954 -0.552526
v 0.552526 2.436723 -0.552525
v 0.000000 2.436723 -0.552525
v 0.000000 2.169954 -0.552526
v 0.000000 2.436723 -1.105047
v 0.000000 2.169954 -1.105047
v 0.602591 0.724896 -0.602591
v 0.602591 0.002364 -0.602591
v 0.692809 0.002364 -0.602591
v 0.742949 0.724892 -0.602591
v 0.602591 2.169954 -1.054979
v 1.054979 2.169954 -1.054979
v 0.602591 2.169954 -0.602590
v 1.054979 2.169954 -0.602590
v 0.602591 0.002364 -0.692809
v 0.692809 0.002364 -0.692809
v 0.602591 0.724896 -0.742949
v 0.742949 0.724892 -0.742949
v 0.914812 1.808687 -0.914812
v 0.823280 1.447423 -0.823280
v 0.602591 1.447423 -0.823280
v 0.602591 1.808691 -0.914812
v 0.914812 1.808687 -0.602590
v 0.823280 1.447423 -0.602590
v 0.602591 1.447423 -0.602590
v 0.602591 1.808691 -0.602590
v -0.552526 2.436723 -1.105047
v -0.552526 2.169954 -1.105047
v -1.105048 2.169954 -1.105047
v -1.105048 2.436723 -1.105047
v -1.105048 2.436723 -0.552525
v -1.105048 2.169954 -0.552526
v -0.552526 2.169954 -0.552526
v -0.552526 2.436723 -0.552525
v -0.602591 0.724896 -0.602591
v -0.742949 0.724892 -0.602591
v -0.692809 0.002364 -0.602591
v -0.602591 0.002364 -0.602591
v -0.602591 2.169954 -1.054979
v -1.054979 2.169954 -1.054979
v -0.602591 2.169954 -0.602590
v -1.054979 2.169954 -0.602590
v -0.602591 0.002364 -0.692809
v -0.692809 0.002364 -0.692809
v -0.602591 0.724896 -0.742949
v -0.742949 0.724892 -0.742949
v -0.914812 1.808687 -0.914812
v -0.602591 1.808691 -0.914812
v -0.602591 1.447423 -0.823280
v -0.823280 1.447423 -0.823280
v -0.914812 1.808687 -0.602590
v -0.823280 1.447423 -0.602590
v -0.602591 1.808691 -0.602590
v -0.602591 1.447423 -0.602590
vt 0.088616 0.718151
vt 0.088616 0.816926
vt 0.000175 0.816926
vt 0.000176 0.718151
vt 0.601908 0.876934
vt 0.559215 0.876934
vt 0.559215 0.790926
vt 0.601908 0.790926
vt 0.266057 0.257985
vt 0.266057 0.172113
vt 0.354620 0.172113
vt 0.354620 0.257985
vt 0.088930 0.602210
vt 0.000367 0.602210
vt 0.000367 0.516337
vt 0.088930 0.516337
vt 0.177493 0.602210
vt 0.177493 0.516337
vt 0.177493 0.257985
vt 0.177493 0.172113
vt 0.177057 0.718151
vt 0.177057 0.816926
vt 0.177493 0.343858
vt 0.266057 0.343858
vt 0.177493 0.688083
vt 0.088930 0.688083
vt 0.000367 0.688083
vt 0.601908 0.962943
vt 0.559215 0.962943
vt 0.274082 0.336077
vt 0.346595 0.336077
vt 0.354620 0.343858
vt 0.274082 0.265767
vt 0.346595 0.265767
vt 0.265497 0.718151
vt 0.353938 0.718151
vt 0.353938 0.816926
vt 0.265497 0.816926
vt 0.916017 0.609372
vt 0.916017 0.523364
vt 0.958710 0.523364
vt 0.958710 0.609372
vt 0.088930 0.257985
vt 0.000367 0.257985
vt 0.000367 0.172113
vt 0.088930 0.172112
vt 0.266057 0.602210
vt 0.266057 0.516337
vt 0.354620 0.516337
vt 0.354620 0.602210
vt 0.088930 0.343858
vt 0.266057 0.688083
vt 0.354620 0.688083
vt 0.916017 0.695381
vt 0.958710 0.695381
vt 0.080905 0.336077
vt 0.000367 0.343858
vt 0.008392 0.336077
vt 0.080904 0.265767
vt 0.008392 0.265767
vt 0.088616 0.917396
vt 0.000176 0.917396
vt 0.000176 0.818622
vt 0.088616 0.818622
vt 0.601907 0.704917
vt 0.559215 0.704917
vt 0.266057 0.086240
vt 0.354620 0.086240
vt 0.088930 0.430465
vt 0.000367 0.430465
vt 0.177493 0.430465
vt 0.177493 0.086240
vt 0.177057 0.917396
vt 0.177057 0.818622
vt 0.177493 0.000367
vt 0.266057 0.000367
vt 0.177493 0.344592
vt 0.088930 0.344592
vt 0.000367 0.344592
vt 0.601907 0.618909
vt 0.559215 0.618909
vt 0.274082 0.008148
vt 0.354620 0.000367
vt 0.346595 0.008148
vt 0.274082 0.078458
vt 0.346595 0.078458
vt 0.265497 0.917396
vt 0.265497 0.818622
vt 0.353938 0.818622
vt 0.353938 0.917396
vt 0.916017 0.437355
vt 0.958710 0.437355
vt 0.088930 0.086240
vt 0.000367 0.086240
vt 0.266057 0.430465
vt 0.354620 0.430464
vt 0.088930 0.000367
vt 0.266057 0.344591
vt 0.354620 0.344591
vt 0.916017 0.351347
vt 0.958710 0.351347
vt 0.080904 0.008148
vt 0.008392 0.008148
vt 0.000367 0.000367
vt 0.080904 0.078458
vt 0.008392 0.078458
vt 0.915284 0.463465
vt 0.892751 0.463465
vt 0.900801 0.351347
vt 0.915284 0.351347
vt 0.514221 0.198439
vt 0.514221 0.212460
vt 0.499760 0.212460
vt 0.499760 0.198439
vt 0.819391 0.575583
vt 0.841924 0.575583
vt 0.841924 0.687701
vt 0.827441 0.687701
vt 0.448822 0.592200
vt 0.471510 0.592200
vt 0.463405 0.705709
vt 0.448822 0.705709
vt 0.476340 0.237105
vt 0.499027 0.237105
vt 0.499027 0.350613
vt 0.484445 0.350613
vt 0.448560 0.065641
vt 0.499027 0.065641
vt 0.499027 0.123221
vt 0.463355 0.123221
vt 0.448822 0.420736
vt 0.499289 0.420736
vt 0.484494 0.478316
vt 0.448822 0.478316
vt 0.791800 0.407406
vt 0.841924 0.407406
vt 0.841924 0.463465
vt 0.806495 0.463465
vt 0.915284 0.631642
vt 0.865160 0.631642
vt 0.879855 0.575583
vt 0.915284 0.575583
vt 0.915284 0.687701
vt 0.842657 0.687701
vt 0.769297 0.351347
vt 0.841924 0.351347
vt 0.448822 0.362551
vt 0.521946 0.362551
vt 0.425903 0.007456
vt 0.499027 0.007456
vt 0.687915 0.121272
vt 0.687915 0.009154
vt 0.702399 0.009154
vt 0.710448 0.121272
vt 0.499760 0.168930
vt 0.514221 0.168930
vt 0.514221 0.182952
vt 0.499760 0.182952
vt 0.661457 0.119619
vt 0.669507 0.007501
vt 0.683991 0.007501
vt 0.683991 0.119619
vt 0.669660 0.592200
vt 0.669660 0.705709
vt 0.655078 0.705709
vt 0.646973 0.592200
vt 0.545367 0.592200
vt 0.537262 0.705709
vt 0.522679 0.705709
vt 0.522679 0.592200
vt 0.573146 0.420736
vt 0.558351 0.478316
vt 0.522679 0.478316
vt 0.522679 0.420736
vt 0.669660 0.420736
vt 0.669660 0.478316
vt 0.633989 0.478316
vt 0.619194 0.420736
vt 0.633867 0.287797
vt 0.648561 0.231738
vt 0.683991 0.231738
vt 0.683991 0.287797
vt 0.687915 0.289450
vt 0.687915 0.233391
vt 0.723344 0.233391
vt 0.738039 0.289450
vt 0.687915 0.345509
vt 0.760542 0.345509
vt 0.611364 0.343856
vt 0.683991 0.343856
vt 0.669660 0.362551
vt 0.596537 0.362551
vt 0.595803 0.362551
vt 0.522679 0.362551
vt 0.581777 0.231635
vt 0.583435 0.343740
vt 0.568953 0.343955
vt 0.559246 0.231968
vt 0.514221 0.197706
vt 0.499760 0.197706
vt 0.499760 0.183685
vt 0.514221 0.183685
vt 0.604308 0.231301
vt 0.597916 0.343526
vt 0.899176 0.231790
vt 0.900235 0.345293
vt 0.885653 0.345429
vt 0.876489 0.232001
vt 0.402483 0.120964
vt 0.410588 0.007456
vt 0.425170 0.007456
vt 0.425170 0.120964
vt 0.374703 0.292429
vt 0.389498 0.234848
vt 0.425170 0.234848
vt 0.425170 0.292429
vt 0.897576 0.060332
vt 0.898113 0.117911
vt 0.862443 0.118243
vt 0.847111 0.060804
vt 0.629409 0.062735
vt 0.615544 0.119005
vt 0.580119 0.119529
vt 0.579290 0.063476
vt 0.544693 0.120053
vt 0.529172 0.064217
vt 0.578461 0.007422
vt 0.505842 0.008496
vt 0.651080 0.006348
vt 0.897033 0.002151
vt 0.823912 0.002833
vt 0.352046 0.350613
vt 0.425170 0.350613
vt 0.768564 0.463465
vt 0.746031 0.463465
vt 0.754080 0.351347
vt 0.768564 0.351347
vt 0.499760 0.168197
vt 0.499760 0.154176
vt 0.514221 0.154176
vt 0.514221 0.168197
vt 0.787198 0.230380
vt 0.809731 0.230380
vt 0.809731 0.342499
vt 0.795248 0.342499
vt 0.374965 0.592200
vt 0.397653 0.592200
vt 0.389548 0.705709
vt 0.374965 0.705709
vt 0.625328 0.732417
vt 0.602641 0.732417
vt 0.602641 0.618909
vt 0.617223 0.618909
vt 0.653108 0.903881
vt 0.602641 0.903881
vt 0.602641 0.846301
vt 0.638312 0.846301
vt 0.374965 0.420736
vt 0.425432 0.420736
vt 0.410637 0.478316
vt 0.374965 0.478316
vt 0.759607 0.062203
vt 0.809731 0.062203
vt 0.809731 0.118262
vt 0.774302 0.118262
vt 0.768564 0.631642
vt 0.718440 0.631642
vt 0.733134 0.575583
vt 0.768564 0.575583
vt 0.768564 0.687701
vt 0.695937 0.687701
vt 0.737104 0.006144
vt 0.809731 0.006144
vt 0.374965 0.362551
vt 0.448089 0.362551
vt 0.675765 0.962066
vt 0.602641 0.962066
vn 0.0000 0.0000 1.0000
vn 1.0000 0.0000 0.0000
vn -0.0000 -1.0000 -0.0000
vn 0.0000 1.0000 0.0000
vn -1.0000 0.0000 0.0000
vn 0.0000 0.0000 -1.0000
vn 0.9976 -0.0692 0.0000
vn -0.0000 -0.0692 0.9976
vn -0.0000 -0.2456 0.9694
vn -0.0000 -0.1105 0.9939
vn 0.9694 -0.2456 0.0000
vn 0.9939 -0.1105 0.0000
vn 0.9323 -0.3617 -0.0000
vn -0.0000 -0.3617 0.9323
vn -0.9976 -0.0692 0.0000
vn -0.9694 -0.2456 0.0000
vn -0.9939 -0.1105 0.0000
vn -0.9323 -0.3617 -0.0000
vn -0.0000 -0.0692 -0.9976
vn -0.0000 -0.2456 -0.9694
vn -0.0000 -0.1105 -0.9939
vn -0.0000 -0.3617 -0.9323
usemtl 1
s 1
f 1/1/1 2/2/1 3/3/1 4/4/1
f 5/5/2 6/6/2 7/7/2 8/8/2
f 9/9/3 10/10/3 7/11/3 6/12/3
f 11/13/4 5/14/4 8/15/4 12/16/4
f 13/17/4 11/13/4 12/16/4 14/18/4
f 15/19/3 16/20/3 10/10/3 9/9/3
f 17/21/1 18/22/1 2/2/1 1/1/1
f 18/23/3 15/19/3 9/9/3 2/24/3
f 17/25/4 1/26/4 11/13/4 13/17/4
f 1/26/4 4/27/4 5/14/4 11/13/4
f 4/28/2 3/29/2 6/6/2 5/5/2
f 23/30/3 24/31/3 3/32/3 2/24/3
f 25/33/3 23/30/3 2/24/3 9/9/3
f 24/31/3 26/34/3 6/12/3 3/32/3
f 26/34/3 25/33/3 9/9/3 6/12/3
f 39/35/1 40/36/1 41/37/1 42/38/1
f 43/39/5 44/40/5 45/41/5 46/42/5
f 47/43/3 46/44/3 45/45/3 48/46/3
f 49/47/4 50/48/4 44/49/4 43/50/4
f 13/17/4 14/18/4 50/48/4 49/47/4
f 15/19/3 47/43/3 48/46/3 16/20/3
f 17/21/1 39/35/1 42/38/1 18/22/1
f 18/23/3 42/51/3 47/43/3 15/19/3
f 17/25/4 13/17/4 49/47/4 39/52/4
f 39/52/4 49/47/4 43/50/4 40/53/4
f 40/54/5 43/39/5 46/42/5 41/55/5
f 55/56/3 42/51/3 41/57/3 56/58/3
f 57/59/3 47/43/3 42/51/3 55/56/3
f 56/58/3 41/57/3 46/44/3 58/60/3
f 58/60/3 46/44/3 47/43/3 57/59/3
f 71/61/6 72/62/6 73/63/6 74/64/6
f 75/65/2 8/8/2 7/7/2 76/66/2
f 77/67/3 76/68/3 7/11/3 10/10/3
f 78/69/4 12/16/4 8/15/4 75/70/4
f 79/71/4 14/18/4 12/16/4 78/69/4
f 80/72/3 77/67/3 10/10/3 16/20/3
f 81/73/6 71/61/6 74/64/6 82/74/6
f 82/75/3 74/76/3 77/67/3 80/72/3
f 81/77/4 79/71/4 78/69/4 71/78/4
f 71/78/4 78/69/4 75/70/4 72/79/4
f 72/80/2 75/65/2 76/66/2 73/81/2
f 87/82/3 74/76/3 73/83/3 88/84/3
f 89/85/3 77/67/3 74/76/3 87/82/3
f 88/84/3 73/83/3 76/68/3 90/86/3
f 90/86/3 76/68/3 77/67/3 89/85/3
f 103/87/6 104/88/6 105/89/6 106/90/6
f 107/91/5 108/92/5 45/41/5 44/40/5
f 109/93/3 48/46/3 45/45/3 108/94/3
f 110/95/4 107/96/4 44/49/4 50/48/4
f 79/71/4 110/95/4 50/48/4 14/18/4
f 80/72/3 16/20/3 48/46/3 109/93/3
f 81/73/6 82/74/6 104/88/6 103/87/6
f 82/75/3 80/72/3 109/93/3 104/97/3
f 81/77/4 103/98/4 110/95/4 79/71/4
f 103/98/4 106/99/4 107/96/4 110/95/4
f 106/100/5 105/101/5 108/92/5 107/91/5
f 115/102/3 116/103/3 105/104/3 104/97/3
f 117/105/3 115/102/3 104/97/3 109/93/3
f 116/103/3 118/106/3 108/94/3 105/104/3
f 118/106/3 117/105/3 109/93/3 108/94/3
usemtl 2
f 19/107/6 20/108/6 21/109/6 22/110/6
f 27/111/3 22/112/3 21/113/3 28/114/3
f 29/115/5 19/116/5 22/117/5 27/118/5
f 20/119/7 30/120/7 28/121/7 21/122/7
f 30/123/8 29/124/8 27/125/8 28/126/8
f 31/127/9 32/128/9 33/129/9 34/130/9
f 34/130/10 33/129/10 29/124/10 30/123/10
f 35/131/11 31/132/11 34/133/11 36/134/11
f 36/134/12 34/133/12 30/120/12 20/119/12
f 32/135/5 37/136/5 38/137/5 33/138/5
f 33/138/5 38/137/5 19/116/5 29/115/5
f 37/139/6 35/140/6 36/141/6 38/142/6
f 38/142/6 36/141/6 20/108/6 19/107/6
f 25/143/6 26/144/6 35/140/6 37/139/6
f 23/145/5 25/146/5 37/136/5 32/135/5
f 26/147/13 24/148/13 31/132/13 35/131/13
f 24/149/14 23/150/14 32/128/14 31/127/14
f 51/151/6 52/152/6 53/153/6 54/154/6
f 59/155/3 60/156/3 53/157/3 52/158/3
f 61/159/2 59/160/2 52/161/2 51/162/2
f 54/163/15 53/164/15 60/165/15 62/166/15
f 62/167/8 60/168/8 59/169/8 61/170/8
f 63/171/9 64/172/9 65/173/9 66/174/9
f 64/172/10 62/167/10 61/170/10 65/173/10
f 67/175/16 68/176/16 64/177/16 63/178/16
f 68/176/17 54/163/17 62/166/17 64/177/17
f 66/179/2 65/180/2 69/181/2 70/182/2
f 65/180/2 61/159/2 51/162/2 69/181/2
f 70/183/6 69/184/6 68/185/6 67/186/6
f 69/184/6 51/151/6 54/154/6 68/185/6
f 57/187/6 70/183/6 67/186/6 58/188/6
f 55/189/2 66/179/2 70/182/2 57/190/2
f 58/191/18 67/175/18 63/178/18 56/192/18
f 56/193/14 63/171/14 66/174/14 55/194/14
f 83/195/1 84/196/1 85/197/1 86/198/1
f 91/199/3 92/200/3 85/201/3 84/202/3
f 93/203/5 91/204/5 84/196/5 83/195/5
f 86/205/7 85/206/7 92/207/7 94/208/7
f 94/209/19 92/210/19 91/211/19 93/212/19
f 95/213/20 96/214/20 97/215/20 98/216/20
f 96/214/21 94/209/21 93/212/21 97/215/21
f 99/217/11 100/218/11 96/219/11 95/220/11
f 100/218/12 86/205/12 94/208/12 96/219/12
f 98/221/5 97/222/5 101/223/5 102/224/5
f 97/222/5 93/203/5 83/195/5 101/223/5
f 102/224/1 101/223/1 100/225/1 99/226/1
f 101/223/1 83/195/1 86/198/1 100/225/1
f 89/227/1 102/224/1 99/226/1 90/228/1
f 87/229/5 98/221/5 102/224/5 89/227/5
f 90/230/13 99/217/13 95/220/13 88/231/13
f 88/232/22 95/213/22 98/216/22 87/233/22
f 111/234/1 112/235/1 113/236/1 114/237/1
f 119/238/3 114/239/3 113/240/3 120/241/3
f 121/242/2 111/243/2 114/244/2 119/245/2
f 112/246/15 122/247/15 120/248/15 113/249/15
f 122/250/19 121/251/19 119/252/19 120/253/19
f 123/254/20 124/255/20 125/256/20 126/257/20
f 126/257/21 125/256/21 121/251/21 122/250/21
f 127/258/16 123/259/16 126/260/16 128/261/16
f 128/261/17 126/260/17 122/247/17 112/246/17
f 124/262/2 129/263/2 130/264/2 125/265/2
f 125/265/2 130/264/2 111/243/2 121/242/2
f 129/266/1 127/267/1 128/268/1 130/269/1
f 130/269/1 128/268/1 112/235/1 111/234/1
f 117/270/1 118/271/1 127/267/1 129/266/1
f 115/272/2 117/273/2 129/263/2 124/262/2
f 118/274/18 116/275/18 123/259/18 127/258/18
f 116/276/22 115/277/22 124/255/22 123/254/22
